<?xml version="1.0" standalone="no"?>
<!DOCTYPE svg PUBLIC "-//W3C//DTD SVG 20010904//EN"
 "http://www.w3.org/TR/2001/REC-SVG-20010904/DTD/svg10.dtd">
<svg version="1.0" xmlns="http://www.w3.org/2000/svg"
 width="300.000000pt" height="172.000000pt" viewBox="0 0 300.000000 172.000000"
 preserveAspectRatio="xMidYMid meet">
<metadata>
Created by potrace 1.10, written by Peter Selinger 2001-2011
</metadata>
<g transform="translate(0.000000,172.000000) scale(0.100000,-0.100000)"
fill="#000000" stroke="none">
<path d="M2372 1618 c-2 -100 -1 -108 17 -108 10 0 27 12 36 28 l18 27 -22
-19 c-13 -12 -25 -16 -31 -10 -5 5 -11 50 -13 99 l-3 90 -2 -107z"/>
<path d="M51 1666 c-9 -10 -8 -16 3 -25 10 -9 16 -8 25 3 9 10 8 16 -3 25 -10
9 -16 8 -25 -3z"/>
<path d="M104 1656 c-4 -9 -4 -20 0 -23 3 -4 6 -2 6 4 0 7 14 8 40 3 22 -4 43
-3 46 1 3 5 -1 9 -8 9 -9 0 -9 3 2 10 13 8 13 10 -2 10 -9 0 -19 -6 -21 -12
-4 -10 -6 -10 -6 0 -1 6 -8 12 -17 12 -9 0 -12 -5 -8 -12 5 -9 3 -9 -9 1 -14
11 -18 11 -23 -3z"/>
<path d="M594 1613 c3 -8 6 -17 6 -19 0 -2 9 -4 20 -4 11 0 20 5 20 12 0 6 7
3 15 -8 8 -11 14 -14 15 -6 0 9 5 10 18 4 21 -11 86 -5 90 8 2 5 10 3 19 -5
16 -16 33 -12 33 9 0 9 -15 13 -50 13 -33 0 -48 -3 -43 -11 3 -6 0 -5 -8 2 -7
6 -18 12 -23 12 -6 0 -4 -5 4 -10 9 -6 10 -10 3 -10 -7 0 -17 8 -22 18 -6 10
-11 12 -11 4 0 -8 -5 -10 -12 -6 -6 4 -27 8 -45 10 -27 1 -33 -1 -29 -13z"/>
<path d="M912 1613 c-7 -10 -10 -12 -7 -5 3 6 1 12 -4 12 -13 0 -15 -26 -3
-34 14 -8 34 11 30 28 -3 15 -4 15 -16 -1z"/>
<path d="M2504 1570 c25 -5 48 -18 61 -34 l21 -26 207 0 c131 0 207 4 207 10
0 6 -74 10 -203 10 l-204 0 -23 25 c-18 19 -33 25 -64 24 l-41 -1 39 -8z"/>
<path d="M594 1551 c-12 -12 1 -18 46 -20 28 -1 50 2 50 7 0 10 -87 21 -96 13z"/>
<path d="M1301 1552 c-6 -2 -11 -7 -11 -11 0 -9 126 -8 136 2 4 4 3 7 -2 7
-73 4 -115 5 -123 2z"/>
<path d="M760 1541 c0 -5 38 -9 85 -9 47 0 85 4 85 9 0 5 -38 9 -85 9 -47 0
-85 -4 -85 -9z"/>
<path d="M940 1539 c0 -6 22 -9 55 -8 30 1 55 6 55 11 0 4 -25 8 -55 8 -32 0
-55 -4 -55 -11z"/>
<path d="M1120 1541 c0 -4 36 -8 80 -8 44 0 80 4 80 9 0 4 -36 8 -80 8 -44 0
-80 -4 -80 -9z"/>
<path d="M2482 1511 c-22 -13 -11 -56 16 -59 14 -2 22 2 22 11 0 11 -7 13 -21
10 -16 -4 -20 -2 -17 8 3 8 15 13 28 11 19 -2 21 0 10 13 -14 17 -20 18 -38 6z"/>
<path d="M42 1463 l3 -48 223 -3 222 -2 0 50 0 50 -226 0 -225 0 3 -47z m414
0 c1 -23 -1 -23 -112 -23 -104 0 -114 2 -114 18 0 10 3 22 7 26 4 3 54 5 112
4 102 -3 106 -4 107 -25z m-346 -3 c0 -13 -7 -20 -20 -20 -19 0 -27 20 -13 33
13 14 33 6 33 -13z m83 11 c46 -2 30 -21 -18 -21 -32 0 -45 4 -45 14 0 8 8 13
18 11 9 -2 29 -4 45 -4z"/>
<path d="M698 1404 c-91 -49 -63 -177 41 -191 36 -5 44 -2 76 30 52 52 45 119
-17 157 -40 24 -45 25 -51 3 -4 -17 -5 -17 -6 0 -1 21 -8 21 -43 1z m92 -44
c11 -11 20 -31 20 -45 0 -14 -9 -34 -20 -45 -11 -11 -31 -20 -45 -20 -14 0
-34 9 -45 20 -11 11 -20 31 -20 45 0 14 9 34 20 45 11 11 31 20 45 20 14 0 34
-9 45 -20z"/>
<path d="M890 1394 c0 -10 13 -13 40 -12 50 2 48 20 -3 23 -25 1 -37 -2 -37
-11z"/>
<path d="M984 1401 c-15 -15 6 -21 76 -21 47 0 80 4 80 10 0 6 -6 10 -12 11
-83 3 -140 3 -144 0z"/>
<path d="M81 1350 c-16 -9 -6 -43 11 -38 13 5 20 36 9 42 -4 3 -13 1 -20 -4z"/>
<path d="M139 1339 c-18 -11 3 -17 69 -18 36 -1 62 3 62 9 0 5 -15 10 -32 11
-18 0 -46 2 -61 3 -15 1 -33 -1 -38 -5z"/>
<path d="M903 1315 c4 -12 147 -16 147 -4 0 5 -15 9 -32 10 -18 0 -52 1 -76 2
-24 1 -41 -2 -39 -8z"/>
<path d="M1060 1313 c0 -8 16 -12 45 -11 25 0 45 4 45 8 0 5 -20 10 -45 12
-31 2 -45 -1 -45 -9z"/>
<path d="M2410 1315 c0 -12 13 -15 70 -14 39 1 70 5 70 10 0 5 -10 10 -22 11
-13 0 -36 2 -51 3 -15 1 -30 -2 -33 -6 -3 -5 -11 -9 -17 -9 -7 0 -6 4 3 10 13
8 12 10 -2 10 -10 0 -18 -7 -18 -15z"/>
<path d="M2560 1315 c0 -12 16 -15 81 -15 57 0 80 3 77 12 -5 15 -29 18 -72 8
-19 -4 -38 -5 -41 -2 -13 13 -45 11 -45 -3z"/>
<path d="M2463 1272 c-97 -6 -54 -18 62 -19 77 0 115 4 115 11 0 11 -70 14
-177 8z"/>
<path d="M904 1248 c3 -23 22 -23 20 0 -3 19 14 14 19 -5 4 -14 5 -12 6 5 1
17 -4 22 -24 22 -20 0 -24 -4 -21 -22z"/>
<path d="M1029 1249 c-10 -20 -9 -21 15 -17 15 3 29 1 32 -4 8 -13 24 1 24 23
0 21 -25 26 -33 7 -4 -10 -6 -10 -6 0 -1 19 -19 14 -32 -9z"/>
<path d="M77 1223 c-12 -11 -8 -43 6 -43 14 0 39 35 30 44 -8 8 -28 8 -36 -1z"/>
<path d="M140 1203 c0 -8 24 -11 80 -10 44 0 80 4 80 9 0 4 -8 8 -17 9 -10 0
-46 1 -81 2 -42 1 -62 -2 -62 -10z"/>
<path d="M315 1212 c-11 -12 9 -22 45 -22 41 0 67 19 28 21 -13 0 -33 2 -46 3
-12 2 -24 1 -27 -2z"/>
<path d="M2410 1114 c0 -8 7 -14 15 -14 8 0 18 0 22 -1 21 -2 10 19 -12 23
-17 4 -25 1 -25 -8z"/>
<path d="M2470 1113 c0 -9 16 -13 45 -13 25 0 45 4 45 9 0 5 -20 11 -45 13
-31 2 -45 -1 -45 -9z"/>
<path d="M2900 1110 c0 -5 14 -10 30 -10 17 0 30 5 30 10 0 6 -13 10 -30 10
-16 0 -30 -4 -30 -10z"/>
<path d="M72 1081 c-5 -13 0 -18 24 -24 4 -1 8 7 10 19 4 24 -25 29 -34 5z"/>
<path d="M140 1078 c0 -4 6 -8 13 -9 60 -4 89 -3 93 3 6 10 3 10 -58 12 -27 1
-48 -2 -48 -6z"/>
<path d="M260 1078 c0 -5 3 -8 8 -9 48 -5 72 -4 72 5 0 7 -18 11 -40 11 -22 0
-40 -3 -40 -7z"/>
<path d="M597 1083 c-22 -21 -2 -30 68 -30 59 -1 75 2 75 14 0 16 -46 16 -69
-2 -11 -7 -13 -7 -7 3 5 8 1 11 -16 8 -13 -2 -28 0 -34 5 -6 5 -14 6 -17 2z"/>
<path d="M905 1081 c-11 -4 -29 -6 -40 -6 -11 0 -23 -4 -27 -10 -5 -7 -8 -6
-8 1 0 6 -18 11 -40 12 -30 1 -40 -2 -40 -13 0 -12 15 -15 76 -15 47 0 73 4
69 10 -3 6 -2 10 4 10 5 0 11 -6 14 -12 3 -9 8 -10 15 -3 16 15 0 33 -23 26z"/>
<path d="M943 1066 c0 -9 12 -14 34 -14 19 0 33 5 33 12 0 7 -14 13 -33 14
-22 1 -34 -3 -34 -12z"/>
<path d="M2186 1068 c6 -10 94 -11 94 0 0 4 -22 7 -49 8 -28 0 -48 -3 -45 -8z"/>
<path d="M2422 1018 c-14 -14 -17 -284 -4 -306 7 -9 67 -12 268 -10 l259 3 0
160 0 160 -255 3 c-191 2 -259 -1 -268 -10z m398 -43 c0 -19 4 -35 9 -35 4 0
6 10 4 23 -5 27 24 60 31 36 2 -8 7 -22 10 -32 3 -10 19 -23 36 -28 16 -6 28
-14 26 -18 -3 -4 -6 -46 -7 -93 -1 -47 -5 -92 -9 -99 -10 -15 -80 -5 -92 13
-6 10 -8 8 -8 -4 0 -11 -8 -18 -20 -18 -11 0 -20 4 -20 9 0 5 -20 7 -45 5 -36
-4 -45 -1 -45 11 0 10 10 15 34 15 18 0 39 6 45 14 10 12 7 15 -17 14 -16 -1
-35 3 -42 7 -10 6 -12 4 -7 -8 8 -21 -12 -27 -86 -26 -45 1 -55 3 -37 9 40 12
1 22 -70 18 -44 -2 -60 0 -60 10 0 9 16 11 59 8 32 -2 65 0 72 5 9 5 0 8 -26
8 -113 -3 -115 -2 -115 36 0 41 21 56 73 49 30 -3 39 0 53 20 9 16 28 26 47
29 18 2 -8 5 -58 7 -49 1 -93 2 -97 1 -5 0 -8 5 -8 13 0 12 19 14 100 11 54
-2 104 -6 110 -10 5 -3 10 -1 10 4 0 6 -6 11 -12 11 -9 0 -8 4 2 10 8 5 48 10
88 10 l72 0 0 -35z m97 -21 c-8 -8 -37 8 -37 21 0 22 35 23 38 2 2 -10 2 -21
-1 -23z m-357 -25 c0 -5 -25 -9 -55 -9 -37 0 -55 4 -55 13 0 8 16 11 55 9 30
-2 55 -8 55 -13z m-40 -187 c0 -4 -16 -8 -35 -8 -19 0 -35 4 -35 8 0 4 16 8
35 8 19 0 35 -4 35 -8z m80 0 c0 -4 -16 -8 -35 -8 -19 0 -35 4 -35 8 0 4 16 8
35 8 19 0 35 -4 35 -8z m80 0 c0 -4 -16 -8 -35 -8 -19 0 -35 4 -35 8 0 4 16 8
35 8 19 0 35 -4 35 -8z"/>
<path d="M70 960 c0 -21 33 -29 45 -11 3 6 -5 8 -17 6 -22 -4 -22 -4 -4 10 19
15 19 15 -2 15 -15 0 -22 -6 -22 -20z"/>
<path d="M134 971 c-2 -2 -1 -8 2 -12 7 -12 114 -11 114 0 0 9 -108 20 -116
12z"/>
<path d="M260 960 c0 -5 16 -10 35 -10 19 0 35 5 35 10 0 6 -16 10 -35 10 -19
0 -35 -4 -35 -10z"/>
<path d="M1360 955 c0 -6 14 -12 30 -13 17 -1 30 2 30 7 0 5 -13 11 -30 13
-18 3 -30 0 -30 -7z"/>
<path d="M1430 954 c0 -7 21 -11 55 -11 71 0 71 14 0 19 -36 2 -55 -1 -55 -8z"/>
<path d="M1388 913 c34 -2 90 -2 125 0 34 2 6 3 -63 3 -69 0 -97 -1 -62 -3z"/>
<path d="M720 809 c0 -5 6 -9 13 -10 108 -5 197 -3 197 6 0 6 -41 11 -105 12
-58 0 -105 -3 -105 -8z"/>
<path d="M2164 809 c-2 -4 17 -9 44 -11 48 -5 60 -3 49 8 -8 9 -87 11 -93 3z"/>
<path d="M640 796 c0 -10 9 -16 21 -16 24 0 21 23 -4 28 -10 2 -17 -3 -17 -12z"/>
<path d="M720 754 c0 -11 4 -12 19 -4 11 5 22 7 25 2 7 -11 59 -7 63 5 3 7
-17 11 -52 12 -42 0 -55 -3 -55 -15z"/>
<path d="M610 633 c0 -9 21 -13 70 -13 91 0 91 17 0 22 -51 2 -70 0 -70 -9z"/>
<path d="M1270 633 c0 -8 13 -13 35 -13 19 0 35 4 35 9 0 5 -16 11 -35 13 -24
3 -35 0 -35 -9z"/>
<path d="M1490 636 c0 -11 9 -16 30 -16 17 0 30 5 30 10 0 6 -6 10 -14 10 -8
0 -21 3 -30 6 -11 4 -16 1 -16 -10z"/>
<path d="M1844 638 c-7 -10 -8 -10 54 -14 36 -2 52 0 52 9 0 13 -98 18 -106 5z"/>
<path d="M2024 641 c-2 -2 -1 -8 2 -12 7 -12 114 -11 114 0 0 9 -108 20 -116
12z"/>
<path d="M1060 630 c0 -5 23 -10 50 -10 28 0 50 5 50 10 0 6 -22 10 -50 10
-27 0 -50 -4 -50 -10z"/>
<path d="M2035 556 c-17 -12 -17 -16 -5 -30 20 -25 103 -18 108 8 4 18 -12 36
-32 36 -6 0 -1 -7 10 -15 18 -14 16 -15 -23 -13 -42 2 -55 11 -30 21 6 3 7 6
1 6 -5 1 -19 -5 -29 -13z m55 -29 l45 -4 -49 1 c-35 1 -51 5 -53 16 -3 10 -2
11 4 3 5 -6 29 -14 53 -16z"/>
<path d="M1265 550 c-4 -6 -1 -17 5 -25 17 -20 113 -20 130 0 13 16 6 35 -13
34 -9 0 -9 -2 1 -6 6 -2 12 -9 12 -14 0 -6 -4 -8 -8 -5 -5 3 -29 6 -55 7 -26
2 -47 6 -47 11 0 12 -18 10 -25 -2z m75 -23 l55 -4 -59 1 c-44 1 -60 5 -63 16
-3 10 -2 11 4 3 5 -6 33 -14 63 -16z"/>
<path d="M2417 544 c6 -17 56 -19 51 -3 -2 7 -16 13 -30 15 -20 2 -25 -1 -21
-12z"/>
<path d="M2480 543 c0 -11 15 -13 75 -13 74 0 85 2 85 13 0 10 -22 13 -80 13
-56 0 -80 -4 -80 -13z"/>
<path d="M610 538 c0 -4 34 -7 75 -7 41 1 75 5 75 10 0 5 -34 8 -75 7 -41 -1
-75 -6 -75 -10z"/>
<path d="M770 541 c0 -5 22 -11 49 -13 36 -2 47 0 44 10 -6 14 -93 17 -93 3z"/>
<path d="M1060 539 c0 -5 16 -9 35 -9 19 0 35 4 35 9 0 5 -16 9 -35 9 -19 0
-35 -4 -35 -9z"/>
<path d="M1612 542 c2 -8 7 -13 11 -13 4 1 30 1 57 1 28 0 50 4 50 9 0 4 -22
9 -50 10 -33 0 -50 -3 -50 -12 0 -8 -4 -7 -11 3 -7 10 -9 11 -7 2z"/>
<path d="M1845 540 c-7 -12 -10 -11 38 -13 20 -1 37 3 37 8 0 14 -67 19 -75 5z"/>
<path d="M1270 445 c-22 -26 5 -45 65 -45 35 0 57 5 65 15 22 26 -5 45 -65 45
-35 0 -57 -5 -65 -15z m125 -15 c0 -11 -14 -16 -54 -18 -55 -3 -79 7 -66 28
11 18 120 9 120 -10z"/>
<path d="M1300 428 c0 -4 21 -8 46 -8 27 0 43 4 39 10 -7 12 -85 10 -85 -2z"/>
<path d="M2030 445 c-22 -26 5 -46 59 -43 42 3 46 5 46 28 0 23 -4 25 -46 28
-32 2 -50 -2 -59 -13z m98 -1 c-3 -3 -20 -6 -38 -6 -25 -1 -29 -3 -15 -11 9
-5 25 -7 36 -4 10 3 19 1 19 -4 0 -12 -87 -11 -95 1 -12 19 7 30 52 30 26 0
44 -3 41 -6z"/>
<path d="M2545 439 c7 -11 75 -12 75 -1 0 4 -18 8 -40 9 -23 1 -38 -2 -35 -8z"/>
<path d="M610 431 c0 -6 56 -10 130 -10 74 0 130 4 130 10 0 5 -56 9 -130 9
-74 0 -130 -4 -130 -9z"/>
<path d="M1060 429 c0 -5 16 -9 35 -9 19 0 35 4 35 9 0 5 -16 9 -35 9 -19 0
-35 -4 -35 -9z"/>
<path d="M1490 430 c0 -5 14 -10 30 -10 17 0 30 5 30 10 0 6 -13 10 -30 10
-16 0 -30 -4 -30 -10z"/>
<path d="M1650 430 c0 -6 23 -10 50 -10 28 0 50 4 50 9 0 4 -22 9 -50 10 -27
0 -50 -4 -50 -9z"/>
<path d="M1850 430 c0 -5 16 -10 35 -10 19 0 35 5 35 10 0 6 -16 10 -35 10
-19 0 -35 -4 -35 -10z"/>
<path d="M2461 426 c-9 -10 -9 -16 -1 -21 13 -8 42 14 34 26 -8 13 -20 11 -33
-5z"/>
<path d="M2683 393 c48 -2 125 -2 170 0 45 1 6 3 -88 3 -93 0 -130 -2 -82 -3z"/>
<path d="M1270 335 c-11 -13 -11 -18 0 -28 8 -7 14 -8 16 -2 4 11 69 11 95 0
20 -8 31 7 23 29 -9 22 -116 23 -134 1z m126 -13 c1 -7 0 -8 -3 -2 -7 14 -113
13 -113 -2 0 -6 -3 -9 -6 -5 -3 3 -3 11 1 17 10 15 118 9 121 -8z"/>
<path d="M2030 335 c-10 -12 -10 -19 -1 -28 9 -9 14 -9 19 -1 9 14 84 13 94
-1 11 -15 32 10 25 29 -9 22 -119 23 -137 1z m129 -12 c0 -11 -3 -13 -6 -5 -6
16 -113 17 -113 0 0 -6 -3 -9 -6 -5 -16 15 13 27 67 27 50 0 59 -3 58 -17z"/>
<path d="M610 324 c0 -8 50 -12 180 -12 135 0 180 3 180 12 0 12 -72 13 -122
2 -10 -2 -18 0 -18 4 0 9 -19 8 -36 -3 -6 -3 -14 -4 -18 0 -12 12 -166 10
-166 -3z"/>
<path d="M1060 323 c0 -9 15 -13 45 -13 25 0 45 5 45 10 0 6 -3 10 -7 11 -60
6 -83 4 -83 -8z"/>
<path d="M1610 325 c0 -12 14 -15 70 -15 39 0 70 4 70 9 0 13 -62 20 -82 9
-12 -5 -25 -5 -38 2 -16 9 -20 8 -20 -5z"/>
<path d="M1844 329 c-2 -4 -1 -10 3 -12 13 -8 63 -5 63 3 0 10 -60 19 -66 9z"/>
<path d="M1490 320 c0 -5 14 -10 30 -10 17 0 30 5 30 10 0 6 -13 10 -30 10
-16 0 -30 -4 -30 -10z"/>
<path d="M2540 278 c0 -8 12 -15 30 -16 17 -1 30 2 30 8 0 5 -6 10 -14 10 -8
0 -21 3 -30 6 -10 4 -16 1 -16 -8z"/>
<path d="M2660 273 c0 -8 12 -13 30 -13 17 0 30 4 30 9 0 5 -13 11 -30 13 -20
3 -30 0 -30 -9z"/>
<path d="M2453 258 c2 -7 12 -13 22 -13 10 0 20 6 23 13 2 7 -6 12 -23 12 -17
0 -25 -5 -22 -12z"/>
<path d="M1266 231 c-3 -5 -3 -16 0 -25 5 -13 20 -16 73 -14 l66 1 -64 6 c-40
4 -65 11 -67 19 -1 7 0 8 3 2 2 -5 30 -9 61 -8 l57 1 -45 7 -45 7 47 1 c25 1
49 -3 51 -8 3 -6 4 -5 3 2 -3 16 -131 24 -140 9z"/>
<path d="M2026 231 c-4 -5 -3 -17 0 -26 5 -12 18 -15 58 -13 44 3 51 6 54 26
3 20 0 22 -52 22 -30 0 -57 -4 -60 -9z m24 -11 c-11 -7 -1 -10 35 -12 45 -1
46 -2 11 -5 -21 -3 -45 -2 -53 1 -16 7 -8 26 10 26 7 0 6 -4 -3 -10z"/>
<path d="M2748 233 c34 -2 90 -2 125 0 34 2 6 3 -63 3 -69 0 -97 -1 -62 -3z"/>
<path d="M610 215 c0 -11 165 -13 176 -2 4 4 -4 7 -17 8 -115 4 -159 3 -159
-6z"/>
<path d="M1065 220 c-9 -15 29 -19 108 -11 4 1 7 5 7 10 0 11 -109 12 -115 1z"/>
<path d="M1610 215 c0 -11 14 -14 70 -12 81 2 98 23 20 25 -29 0 -48 -3 -45
-9 4 -5 1 -9 -4 -9 -6 0 -11 5 -11 10 0 6 -7 10 -15 10 -8 0 -15 -7 -15 -15z"/>
<path d="M1880 218 c0 -9 11 -14 30 -13 17 0 30 3 30 7 0 5 -6 8 -14 8 -8 0
-21 3 -30 6 -10 4 -16 1 -16 -8z"/>
<path d="M130 140 c0 -5 18 -10 40 -10 22 0 40 5 40 10 0 6 -18 10 -40 10 -22
0 -40 -4 -40 -10z"/>
<path d="M1270 125 c-22 -26 5 -45 65 -45 60 0 87 19 65 45 -8 10 -30 15 -65
15 -35 0 -57 -5 -65 -15z m125 -15 c0 -11 -14 -16 -54 -18 -55 -3 -79 7 -66
28 11 18 120 9 120 -10z"/>
<path d="M1300 109 c0 -5 21 -9 47 -9 25 0 43 3 39 8 -11 10 -86 11 -86 1z"/>
<path d="M2030 125 c-10 -12 -10 -18 0 -30 18 -21 182 -21 200 0 10 12 10 18
0 30 -18 21 -182 21 -200 0z m195 -15 c0 -12 -18 -16 -89 -18 -87 -3 -115 5
-101 27 4 8 38 11 98 9 74 -2 92 -6 92 -18z"/>
<path d="M2120 109 c0 -5 23 -9 51 -9 27 0 48 4 45 8 -7 11 -96 12 -96 1z"/>
<path d="M193 112 c-101 -5 -73 -20 37 -20 69 0 100 4 100 11 0 12 -28 14
-137 9z"/>
<path d="M610 109 c0 -5 32 -9 71 -9 38 0 68 4 65 8 -7 12 -136 13 -136 1z"/>
<path d="M1060 110 c0 -5 20 -10 45 -10 25 0 45 5 45 10 0 6 -20 10 -45 10
-25 0 -45 -4 -45 -10z"/>
<path d="M1640 110 c0 -5 23 -10 50 -10 28 0 50 5 50 10 0 6 -22 10 -50 10
-27 0 -50 -4 -50 -10z"/>
<path d="M1840 111 c0 -4 23 -9 50 -10 28 0 50 4 50 9 0 6 -22 10 -50 10 -27
0 -50 -4 -50 -9z"/>
<path d="M2540 109 c0 -11 28 -15 72 -11 59 6 45 22 -17 20 -30 -1 -55 -5 -55
-9z"/>
<path d="M1271 17 c-8 -10 -7 -14 4 -14 8 0 12 4 9 9 -3 4 21 7 53 6 l58 -1
-50 -7 -50 -7 57 0 c47 0 56 3 47 14 -15 17 -113 17 -128 0z"/>
<path d="M2031 17 c-8 -10 -7 -14 4 -14 8 0 12 4 9 9 -9 14 170 10 186 -4 12
-11 12 -10 1 5 -11 14 -29 17 -101 17 -61 0 -91 -4 -99 -13z"/>
<path d="M638 3 c17 -2 47 -2 65 0 17 2 3 4 -33 4 -36 0 -50 -2 -32 -4z"/>
</g>
</svg>
